<svg xmlns="http://www.w3.org/2000/svg" viewBox="0 0 64 64" width="64" height="64">
  <rect width="64" height="64" rx="11.52" ry="11.52" fill="#0C111F"/>
  <g transform="translate(4.5188,4.6290) scale(0.110145) translate(0,500) scale(0.1,-0.1)" fill="#BCEF2F"><path d="M866 4221 c-16 -6 -14 -11 18 -39 157 -137 412 -253 665 -302 261
-51 736 -47 964 7 37 9 70 14 73 10 3 -3 -28 -45 -69 -94 -115 -137 -267 -333
-267 -345 0 -12 175 -231 208 -261 19 -17 20 -17 48 16 67 78 715 883 783 973
l34 45 -1219 -2 c-671 -1 -1227 -5 -1238 -8z"/><path d="M3664 4198 c-17 -18 -114 -136 -215 -262 -101 -125 -230 -285 -287
-355 -57 -69 -167 -205 -244 -301 -78 -96 -194 -238 -257 -315 -64 -77 -144
-174 -177 -215 -33 -41 -125 -154 -203 -250 -78 -96 -168 -206 -200 -245 -31
-38 -96 -117 -143 -175 -48 -58 -170 -208 -273 -335 -102 -126 -260 -320 -350
-430 -295 -358 -415 -509 -415 -517 0 -4 105 -8 234 -8 l234 0 69 83 c38 45
96 116 129 157 32 41 120 149 194 240 75 91 253 309 395 485 143 176 314 385
380 465 66 80 224 273 350 429 127 156 302 372 389 480 148 181 554 689 774
965 50 64 92 121 92 126 0 6 -83 10 -223 10 l-223 0 -30 -32z"/><path d="M1159 3703 c23 -27 113 -132 199 -234 86 -103 223 -265 304 -360 80
-96 211 -253 290 -349 79 -96 150 -176 158 -177 8 -2 39 28 68 66 30 38 80
100 112 137 43 50 56 72 50 83 -21 39 -422 511 -470 555 -154 138 -374 245
-630 306 -126 30 -129 28 -81 -27z"/><path d="M2867 2156 c-59 -73 -109 -140 -112 -147 -5 -16 224 -296 348 -426
164 -171 384 -284 697 -357 57 -14 106 -23 109 -21 2 2 -25 35 -61 72 -35 37
-102 113 -149 168 -46 55 -123 145 -170 200 -47 55 -152 181 -234 280 -192
232 -306 365 -315 365 -3 0 -54 -60 -113 -134z"/><path d="M2463 1688 c-38 -46 -113 -137 -166 -203 -87 -110 -224 -279 -459
-568 -48 -60 -88 -113 -88 -118 0 -5 491 -9 1190 -9 655 0 1190 2 1190 5 0 3
-33 29 -72 58 -268 197 -657 307 -1088 307 -201 0 -313 -10 -428 -40 -60 -15
-73 -16 -68 -4 3 8 71 95 151 193 80 99 145 185 145 191 0 15 -209 264 -225
268 -6 2 -43 -34 -82 -80z"/></g>
</svg>
