<svg xmlns="http://www.w3.org/2000/svg" viewBox="0 0 938.97 212.00" width="939" height="212">
  
  <g transform="translate(31.5391,10.9217) scale(0.382609) translate(0,500) scale(0.1,-0.1)" fill="#BCEF2F"><path d="M866 4221 c-16 -6 -14 -11 18 -39 157 -137 412 -253 665 -302 261
-51 736 -47 964 7 37 9 70 14 73 10 3 -3 -28 -45 -69 -94 -115 -137 -267 -333
-267 -345 0 -12 175 -231 208 -261 19 -17 20 -17 48 16 67 78 715 883 783 973
l34 45 -1219 -2 c-671 -1 -1227 -5 -1238 -8z"/><path d="M3664 4198 c-17 -18 -114 -136 -215 -262 -101 -125 -230 -285 -287
-355 -57 -69 -167 -205 -244 -301 -78 -96 -194 -238 -257 -315 -64 -77 -144
-174 -177 -215 -33 -41 -125 -154 -203 -250 -78 -96 -168 -206 -200 -245 -31
-38 -96 -117 -143 -175 -48 -58 -170 -208 -273 -335 -102 -126 -260 -320 -350
-430 -295 -358 -415 -509 -415 -517 0 -4 105 -8 234 -8 l234 0 69 83 c38 45
96 116 129 157 32 41 120 149 194 240 75 91 253 309 395 485 143 176 314 385
380 465 66 80 224 273 350 429 127 156 302 372 389 480 148 181 554 689 774
965 50 64 92 121 92 126 0 6 -83 10 -223 10 l-223 0 -30 -32z"/><path d="M1159 3703 c23 -27 113 -132 199 -234 86 -103 223 -265 304 -360 80
-96 211 -253 290 -349 79 -96 150 -176 158 -177 8 -2 39 28 68 66 30 38 80
100 112 137 43 50 56 72 50 83 -21 39 -422 511 -470 555 -154 138 -374 245
-630 306 -126 30 -129 28 -81 -27z"/><path d="M2867 2156 c-59 -73 -109 -140 -112 -147 -5 -16 224 -296 348 -426
164 -171 384 -284 697 -357 57 -14 106 -23 109 -21 2 2 -25 35 -61 72 -35 37
-102 113 -149 168 -46 55 -123 145 -170 200 -47 55 -152 181 -234 280 -192
232 -306 365 -315 365 -3 0 -54 -60 -113 -134z"/><path d="M2463 1688 c-38 -46 -113 -137 -166 -203 -87 -110 -224 -279 -459
-568 -48 -60 -88 -113 -88 -118 0 -5 491 -9 1190 -9 655 0 1190 2 1190 5 0 3
-33 29 -72 58 -268 197 -657 307 -1088 307 -201 0 -313 -10 -428 -40 -60 -15
-73 -16 -68 -4 3 8 71 95 151 193 80 99 145 185 145 191 0 15 -209 264 -225
268 -6 2 -43 -34 -82 -80z"/></g>
  <path d="M31.5711669921875 0V149.9996337890625L352.142333984375 514.7144165039062V525.428466796875H40.142333984375V660H529.7140502929688V497.85784912109375L218.71405029296875 144.428466796875V134.571533203125H541.5709838867188V0Z" transform="translate(239.69 172.00) scale(0.20000 -0.20000)" fill="#FFFFFF"/>
  <path d="M184.14215087890625 181.8572998046875V306.714599609375H327.71295166015625Q392.14141845703125 306.714599609375 423.85565185546875 333.3573913574219Q455.56988525390625 360.00018310546875 455.56988525390625 423Q455.56988525390625 478.7142333984375 426.35565185546875 507.3570251464844Q397.14141845703125 535.9998168945312 334.28448486328125 535.9998168945312H184.14215087890625V660H339.85601806640625Q402.8558349609375 660 453.9986267089844 645.2143249511719Q505.14141845703125 630.4286499023438 542.0699768066406 601.0000915527344Q578.99853515625 571.571533203125 598.6414184570312 526.2858581542969Q618.2843017578125 481.00018310546875 618.2843017578125 419.8572998046875Q618.2843017578125 341.71441650390625 582.7843017578125 288.71441650390625Q547.2843017578125 235.71441650390625 478.1415100097656 208.78585815429688Q408.99871826171875 181.8572998046875 305.9989013671875 181.8572998046875ZM65.7135009765625 0V660H226.85638427734375V0Z" transform="translate(354.29 172.00) scale(0.20000 -0.20000)" fill="#FFFFFF"/>
  <path d="M12.5711669921875 0 236.14251708984375 660H469.28466796875L692.713134765625 0H516.8560180664062L360.28485107421875 533.2855834960938H345.71368408203125L188.14251708984375 0ZM144.4281005859375 122.99981689453125V231.85711669921875H584.28466796875V122.99981689453125Z" transform="translate(483.49 172.00) scale(0.20000 -0.20000)" fill="#FFFFFF"/>
  <path d="M65.7135009765625 0V660H345.71331787109375Q399.1416015625 660 443.3557434082031 651.6428833007812Q487.56988525390625 643.2857666015625 521.7841186523438 627.0000915527344Q555.9983520507812 610.7144165039062 579.9983520507812 587.2858581542969Q603.9983520507812 563.8572998046875 616.1412353515625 533.2144165039062Q628.2841186523438 502.571533203125 628.2841186523438 465.14288330078125Q628.2841186523438 430.71441650390625 617.3555603027344 402.7858581542969Q606.427001953125 374.8572998046875 583.927001953125 353.71441650390625Q561.427001953125 332.571533203125 527.6412353515625 319.3572082519531Q493.85546875 306.14288330078125 448.283935546875 300.14288330078125V286.14306640625Q505.427001953125 280.57171630859375 537.4270935058594 260.7145080566406Q569.4271850585938 240.8572998046875 586.4986267089844 208.64297485351562Q603.570068359375 176.42864990234375 615.99853515625 132.28594970703125L653.5698852539062 0H474.56988525390625L446.14141845703125 122.4288330078125Q437.570068359375 161.571533203125 422.49871826171875 183.42864990234375Q407.4273681640625 205.2857666015625 383.57025146484375 214.00009155273438Q359.713134765625 222.71441650390625 323.4273681640625 222.71441650390625H226.85638427734375V0ZM226.85638427734375 342.57171630859375H333.713134765625Q393.8558349609375 342.57171630859375 427.14141845703125 366.14306640625Q460.427001953125 389.71441650390625 460.427001953125 439.57135009765625Q460.427001953125 489.1427001953125 429.99853515625 512.9998168945312Q399.570068359375 536.85693359375 337.713134765625 536.85693359375H226.85638427734375Z" transform="translate(624.49 172.00) scale(0.20000 -0.20000)" fill="#FFFFFF"/>
  <path d="M13.57135009765625 0 239.14178466796875 330.428466796875 19.5711669921875 660H208.1427001953125L349.28448486328125 415.57135009765625H354.71295166015625L497.14031982421875 660H687.2833862304688L465.2843017578125 334.1427001953125L693.4260864257812 0H503.99725341796875L354.8558349609375 252.14288330078125H349.4273681640625L202.14288330078125 0Z" transform="translate(760.29 172.00) scale(0.20000 -0.20000)" fill="#FFFFFF"/>
</svg>